IKResults
version=1
nRows=7
nColumns=67
inDegrees=yes

Units are S.I. units (second, meters, Newtons, ...)
Angles are in degrees.

endheader
time	pelvis_tilt	pelvis_list	pelvis_rotation	pelvis_tx	pelvis_ty	pelvis_tz	hip_flexion_r	hip_adduction_r	hip_rotation_r	knee_angle_r	knee_rot_r	knee_adduc_r	ankle_angle_r	ankle_rot_r	ankle_add_r	subtalar_angle_r	mtp_angle_r	mtp_rot_r	mtp_add_r	hip_flexion_l	hip_adduction_l	hip_rotation_l	knee_angle_l	knee_rot_l	knee_adduc_l	ankle_angle_l	ankle_rot_l	ankle_add_l	subtalar_angle_l	mtp_angle_l	mtp_rot_l	mtp_add_l	lumbar_extension	lumbar_bending	lumbar_rotation	neck_flexion	neck_lateral_bending	neck_rotation	arm_flex_r	arm_add_r	arm_rot_r	elbow_flex_r	elbow_rot_r	elbow_add_r	pro_sup_r	wrist_flex_r	wrist_adduc_r	wrist_rot_r	wrist_dev_r	hand_finger_flex_r	hand_finger_adduc_r	hand_finger_rot_r	arm_flex_l	arm_add_l	arm_rot_l	elbow_flex_l	elbow_rot_l	elbow_add_l	pro_sup_l	wrist_flex_l	wrist_adduc_l	wrist_rot_l	wrist_dev_l	hand_finger_flex_l	hand_finger_adduc_l	hand_finger_rot_l
      0.00000000	     19.35381718	      4.31276415	     -6.44721055	     -1.29176055	      0.76046128	      0.52513979	      7.67295433	     -7.43662355	     -2.10860533	    -25.65510105	     -5.00000000	      4.14775979	      4.32557968	     -4.05612603	      0.65716706	     -6.95194134	      2.69177594	     -0.41625920	      1.29100773	    -32.78477311	      8.53254829	     -6.69559507	     -3.35213091	      5.00000000	      1.63207773	     10.86215461	     -3.23418946	     -2.67488289	      3.22781411	      3.72956169	     -1.26181838	     -1.39499729	    -38.72432886	    -11.63003389	     -8.89762101	      0.00000000	      0.00000000	      0.00000000	      0.00000000	      0.00000000	      0.00000000	      0.00000000	      0.00000000	      0.00000000	     -0.00042092	      0.00000000	      0.00000000	      0.00000000	      0.00000000	      0.00000000	      0.00000000	      0.00000000	      0.00000000	      0.00000000	      0.00000000	      0.00000000	      0.00000000	      0.00000000	      0.00000000	      0.00000000	      0.00000000	      0.00000000	      0.00000000	      0.00000000	      0.00000000	      0.00000000
      0.00500000	     19.08746110	      4.64196431	     -6.36444714	     -1.28523667	      0.75891602	      0.52554760	      7.99212071	     -7.50791210	     -1.96827569	    -23.35268729	     -5.00000000	      3.87554441	      4.54044518	     -4.05331237	      0.73226330	     -6.93882572	      2.76346281	     -0.41529167	      1.32256018	    -33.16547533	      8.68114012	     -6.55556133	     -3.13780533	      5.00000000	      1.49477686	     11.00557851	     -3.24231805	     -2.66754226	      3.24637902	      3.82659996	     -1.29786476	     -1.43031187	    -38.58344881	    -11.96404928	     -8.91950461	      0.00000000	      0.00000000	      0.00000000	      0.00000000	      0.00000000	      0.00000000	      0.00000000	      0.00000000	      0.00000000	     -0.00042092	      0.00000000	      0.00000000	      0.00000000	      0.00000000	      0.00000000	      0.00000000	      0.00000000	      0.00000000	      0.00000000	      0.00000000	      0.00000000	      0.00000000	      0.00000000	      0.00000000	      0.00000000	      0.00000000	      0.00000000	      0.00000000	      0.00000000	      0.00000000	      0.00000000
      0.01000000	     19.20776465	      4.49953473	     -5.70744227	     -1.27845850	      0.75804380	      0.52570087	      7.33480599	     -7.03037749	     -3.34231276	    -20.41814089	     -5.00000000	      3.03809291	      4.13207817	     -4.32112976	      1.96819742	     -6.15416921	      4.27729878	     -0.44886212	      2.00000000	    -34.09200333	      8.00320705	     -5.35834079	     -2.88735864	      5.00000000	      1.16324909	     11.25715608	     -2.50381039	     -2.37312873	      3.60497433	      5.96781506	     -2.00000000	     -2.00000000	    -38.92879211	    -11.51708373	     -9.35044322	      0.00000000	      0.00000000	      0.00000000	      0.00000000	      0.00000000	      0.00000000	      0.00000000	      0.00000000	      0.00000000	     -0.00042092	      0.00000000	      0.00000000	      0.00000000	      0.00000000	      0.00000000	      0.00000000	      0.00000000	      0.00000000	      0.00000000	      0.00000000	      0.00000000	      0.00000000	      0.00000000	      0.00000000	      0.00000000	      0.00000000	      0.00000000	      0.00000000	      0.00000000	      0.00000000	      0.00000000
      0.01500000	     18.87565842	      4.85682958	     -5.66081677	     -1.27177436	      0.75632605	      0.52600915	      7.61629133	     -7.15174998	     -3.21188414	    -18.00783599	     -5.00000000	      2.75542291	      4.43190177	     -4.32881707	      2.10014327	     -6.11654868	      4.35777172	     -0.44801514	      2.00000000	    -34.43734836	      8.20272497	     -5.27462923	     -2.63282930	      5.00000000	      1.03813214	     11.29489755	     -2.65190973	     -2.40043030	      3.76252025	      6.07603741	     -2.00000000	     -2.00000000	    -38.60410197	    -11.81929286	     -9.41561564	      0.00000000	      0.00000000	      0.00000000	      0.00000000	      0.00000000	      0.00000000	      0.00000000	      0.00000000	      0.00000000	     -0.00042092	      0.00000000	      0.00000000	      0.00000000	      0.00000000	      0.00000000	      0.00000000	      0.00000000	      0.00000000	      0.00000000	      0.00000000	      0.00000000	      0.00000000	      0.00000000	      0.00000000	      0.00000000	      0.00000000	      0.00000000	      0.00000000	      0.00000000	      0.00000000	      0.00000000
      0.02000000	     18.51487453	      5.20787359	     -5.44355986	     -1.26523191	      0.75465391	      0.52626971	      7.86224666	     -7.25632394	     -3.10014136	    -15.60619511	     -5.00000000	      2.43575627	      4.67075325	     -4.34978924	      2.22096406	     -6.08228376	      4.41072221	     -0.44682812	      2.00000000	    -34.74047661	      8.30352711	     -5.18927541	     -2.36869195	      4.99921845	      0.95428451	     11.36074265	     -2.78431325	     -2.44404427	      3.90375058	      6.15941692	     -2.00000000	     -2.00000000	    -38.35910813	    -12.08828988	     -9.48063099	      0.00000000	      0.00000000	      0.00000000	      0.00000000	      0.00000000	      0.00000000	      0.00000000	      0.00000000	      0.00000000	     -0.00042092	      0.00000000	      0.00000000	      0.00000000	      0.00000000	      0.00000000	      0.00000000	      0.00000000	      0.00000000	      0.00000000	      0.00000000	      0.00000000	      0.00000000	      0.00000000	      0.00000000	      0.00000000	      0.00000000	      0.00000000	      0.00000000	      0.00000000	      0.00000000	      0.00000000
      0.02500000	     18.14569975	      5.50546674	     -5.25423514	     -1.25862133	      0.75300206	      0.52648752	      8.01408026	     -7.32768912	     -3.08098508	    -13.10844355	     -5.00000000	      2.13521162	      4.88561876	     -4.42385266	      2.36592215	     -6.05582863	      4.45770933	     -0.44643590	      2.00000000	    -35.01578369	      8.37695147	     -5.04503013	     -2.16929575	      4.94975133	      0.88007047	     11.39415153	     -2.96287868	     -2.50584607	      4.09360390	      6.24835969	     -2.00000000	     -2.00000000	    -38.03765572	    -12.25923901	     -9.61566531	      0.00000000	      0.00000000	      0.00000000	      0.00000000	      0.00000000	      0.00000000	      0.00000000	      0.00000000	      0.00000000	     -0.00042092	      0.00000000	      0.00000000	      0.00000000	      0.00000000	      0.00000000	      0.00000000	      0.00000000	      0.00000000	      0.00000000	      0.00000000	      0.00000000	      0.00000000	      0.00000000	      0.00000000	      0.00000000	      0.00000000	      0.00000000	      0.00000000	      0.00000000	      0.00000000	      0.00000000
      0.03000000	     17.76804924	      5.79936156	     -4.96425681	     -1.25195177	      0.75140168	      0.52663219	      8.09509771	     -7.41448885	     -3.12656963	    -10.60817571	     -5.00000000	      1.83483896	      5.07229657	     -4.53284903	      2.53936979	     -6.02267019	      4.49721358	     -0.44600570	      2.00000000	    -35.26474723	      8.38287139	     -4.89337396	     -2.01206988	      4.90169734	      0.81270157	     11.40561104	     -3.14510861	     -2.58266650	      4.30259731	      6.34206443	     -2.00000000	     -2.00000000	    -37.71156316	    -12.36165138	     -9.78450026	      0.00000000	      0.00000000	      0.00000000	      0.00000000	      0.00000000	      0.00000000	      0.00000000	      0.00000000	      0.00000000	     -0.00042092	      0.00000000	      0.00000000	      0.00000000	      0.00000000	      0.00000000	      0.00000000	      0.00000000	      0.00000000	      0.00000000	      0.00000000	      0.00000000	      0.00000000	      0.00000000	      0.00000000	      0.00000000	      0.00000000	      0.00000000	      0.00000000	      0.00000000	      0.00000000	      0.00000000
